<?xml version="1.0" encoding="utf-8"?>
<!-- Generator: Adobe Illustrator 25.0.0, SVG Export Plug-In . SVG Version: 6.00 Build 0)  -->
<svg version="1.1" id="Layer_1" xmlns="http://www.w3.org/2000/svg" xmlns:xlink="http://www.w3.org/1999/xlink" x="0px" y="0px"
	 viewBox="0 0 1366 768" style="enable-background:new 0 0 1366 768;" xml:space="preserve">
<style type="text/css">
	.st0{fill:#F79CD9;}
	.st1{fill:#FFFFFF;}
	.st2{fill:#9DB6F4;}
</style>
<g>
	<path class="st0" d="M986,613.5c-66.9,0-129.8-25.8-177.1-72.6s-73.4-109.1-73.4-175.4s26.1-128.5,73.4-175.4
		s110.2-72.6,177.1-72.6s129.8,25.8,177.1,72.6c47.3,46.8,73.4,109.1,73.4,175.4s-26.1,128.5-73.4,175.4
		C1115.8,587.7,1052.9,613.5,986,613.5z"/>
	<path class="st1" d="M986,118c33.8,0,66.5,6.5,97.3,19.4c29.8,12.5,56.5,30.3,79.5,53s41,49.2,53.6,78.7
		c13,30.5,19.6,62.9,19.6,96.3s-6.6,65.8-19.6,96.3c-12.6,29.5-30.6,55.9-53.6,78.7s-49.7,40.6-79.5,53
		c-30.8,12.9-63.6,19.5-97.3,19.5s-66.5-6.5-97.3-19.5c-29.8-12.5-56.5-30.3-79.5-53s-41-49.2-53.6-78.7
		c-13-30.5-19.6-62.9-19.6-96.3s6.6-65.8,19.6-96.3c12.6-29.5,30.6-55.9,53.6-78.7s49.7-40.6,79.5-53C919.5,124.5,952.3,118,986,118
		 M986,117c-138.6,0-251,111.3-251,248.5S847.4,614,986,614s251-111.3,251-248.5S1124.6,117,986,117L986,117z"/>
</g>
<g>
	<path class="st2" d="M210.9,768.5c-37.7-37.3-58.4-87-58.4-140c0-108.6,88.4-197,197-197s197,88.4,197,197
		c0,53-20.7,102.7-58.4,140H210.9z"/>
	<path class="st1" d="M349.5,432c26.5,0,52.3,5.2,76.5,15.4c23.4,9.9,44.4,24.1,62.5,42.1s32.2,39.1,42.1,62.5
		c10.2,24.2,15.4,50,15.4,76.5c0,26.7-5.3,52.7-15.7,77C520.3,729,506,750,487.9,768H211.1c-18.2-18-32.4-39-42.4-62.5
		c-10.4-24.4-15.7-50.3-15.7-77c0-26.5,5.2-52.3,15.4-76.5c9.9-23.4,24.1-44.4,42.1-62.5s39.1-32.2,62.5-42.1
		C297.2,437.2,323,432,349.5,432 M349.5,431C240.4,431,152,519.4,152,628.5c0,55,22.5,104.7,58.7,140.5h277.6
		c36.3-35.8,58.7-85.5,58.7-140.5C547,519.4,458.6,431,349.5,431L349.5,431z"/>
</g>
</svg>
