<?xml version="1.0" encoding="utf-8"?>
<!-- Generator: Adobe Illustrator 25.0.0, SVG Export Plug-In . SVG Version: 6.00 Build 0)  -->
<svg version="1.1" id="GraphicMama" xmlns="http://www.w3.org/2000/svg" xmlns:xlink="http://www.w3.org/1999/xlink" x="0px"
	 y="0px" viewBox="0 0 2204.26 2258.2" style="enable-background:new 0 0 2204.26 2258.2;" xml:space="preserve">
<style type="text/css">
	.st0{fill:#0D72B9;}
	.st1{fill:#EB6767;}
	.st2{opacity:0.1;}
	.st3{fill:#979797;}
	.st4{opacity:0.2;}
	.st5{opacity:0.3;fill:#F2F2F2;}
	.st6{fill:#E5E5E4;}
	.st7{opacity:0.5;fill:#F2F2F2;}
	.st8{fill:#808080;}
	.st9{opacity:0.2;fill:#FFFFFF;}
	.st10{opacity:0.5;fill:#FFFFFF;}
	.st11{opacity:0.3;fill:#FFFFFF;}
	.st12{opacity:0.3;}
	.st13{opacity:0.5;fill:#676767;}
	.st14{fill:#CCCBCB;}
	.st15{opacity:0.5;}
	.st16{opacity:0.7;fill:#F2F2F2;}
	.st17{fill:#F2F2F2;}
	.st18{opacity:0.2;fill:#F2F2F2;}
	.st19{fill:#4D4E4E;}
	.st20{fill:#FDF3D8;}
	.st21{clip-path:url(#SVGID_2_);}
	.st22{fill:#FFFFFF;}
	.st23{clip-path:url(#SVGID_4_);}
	.st24{opacity:0.8;fill:#FFFFFF;}
	.st25{fill:#402312;}
	.st26{fill:#DA6865;}
	.st27{fill:#676767;}
	.st28{fill:#333333;}
</style>
<path class="st0" d="M1113.09,0.13C534.33,0.13,65.15,494.37,65.15,1104.04s469.18,1103.91,1047.94,1103.91
	s1047.94-494.24,1047.94-1103.91S1691.85,0.13,1113.09,0.13z M1108.05,2183.54c-564.22,0-1021.6-482.24-1021.6-1077.11
	S543.83,29.32,1108.05,29.32s1021.6,482.24,1021.6,1077.11S1672.26,2183.54,1108.05,2183.54z"/>
<g>
	<path class="st1" d="M1069.16,2062.68c0.97-0.13,1.93-0.26,2.9-0.39c-9.4-0.22-18.8-0.45-28.2-0.64
		c-8.24,0.16-16.48,0.32-24.72,0.48c11.84,0.46,23.74,0.69,35.69,0.69C1059.62,2062.82,1064.39,2062.76,1069.16,2062.68z"/>
	<g>
		<path class="st1" d="M1738.23,326.13c-160.45-140.5-370.56-225.68-600.6-225.68c-497.88,0-902.54,398.85-912.04,894.46
			C285.23,965.81,1630.83,367.16,1738.23,326.13z"/>
		<path class="st1" d="M1653.46,409.8c-313.81,121.46-1382.57,608.39-1499.34,662.51c-5.89,2.73-9.72,8.59-9.72,15.08
			c0,0.04,0,0.07,0,0.11c0,138.41,30.87,269.59,86.03,387.11c3.77,8.03,13.05,11.84,21.33,8.67
			c57.85-22.19,115.58-44.68,173.29-67.22c322.96-126.14,643.88-257.42,964.46-389.47c173.54-71.48,346.99-143.18,520.61-214.43
			c8.29-3.4,12.39-12.67,9.48-21.14c-50.29-146.4-136.79-275.94-248.79-378C1666.11,408.72,1659.39,407.5,1653.46,409.8z"/>
		<path class="st1" d="M615.95,1832.48c36.27-14.39,72.46-28.98,108.66-43.49c297.33-119.16,593.43-241.4,891.2-359.48
			c142.03-56.32,284.47-111.65,427.56-165.25c10.77-56.06,16.48-113.92,16.48-173.13c0-95.76-14.79-188.05-42.14-274.76
			c-41.45,17-82.89,34.03-124.32,51.07c-324.89,133.7-649.34,268.47-975.17,399.85c-163.82,66.05-327.99,131.24-492.73,194.98
			c-31.41,12.16-62.89,24.14-94.39,36.08C397.69,1631.6,495.93,1746.24,615.95,1832.48z"/>
		<path class="st1" d="M1926.59,1346.01c-299.99,113.19-597.11,233.76-894.18,354.34c-149.83,60.81-299.65,121.63-449.84,181.53
			c-12.5,4.99-25.02,10.02-37.57,15.08c99.26,69.99,213.13,120.62,336.11,146.52c10.25-1.8,20.52-3.42,30.79-4.86
			c132.78-18.66,267.77-16.39,402.29-8.61c328.27-90.99,582.16-360.88,650.07-698.12
			C1951.69,1336.59,1939.13,1341.28,1926.59,1346.01z"/>
	</g>
	<g id="_x32__1_">
		<ellipse class="st2" cx="1153.33" cy="2114.29" rx="218.85" ry="43.47"/>
		<g>
			<g>
				<path class="st3" d="M1507.16,968.46c0,0,169.99,86.23,255.84,196.77c85.85,110.54,160.65,280.57,160.07,296.05
					c-0.58,15.48-64.94,86.11-183.3,51.25c-118.36-34.86-301.77-228.39-312.12-246.28c-10.35-17.89-108.83-126.49-77.04-228.15
					C1382.41,936.44,1507.16,968.46,1507.16,968.46z"/>
				<path class="st4" d="M1857.23,1369.46c-31.29-31.88-114.95-81.95-208.61-60.67c-2.7,0.61-13.84-116.01-39.02-167.81
					c-45.77-94.12-105.01-167.45-105.01-167.45s-100.12-1.29-131.91,100.37c-31.79,101.66,44.63,174.46,54.98,192.35
					c10.35,17.89,193.76,211.42,312.12,246.28c88.79,26.15,145.42-13.5,168.43-41.49
					C1907.1,1429.27,1896.71,1413.54,1857.23,1369.46z"/>
				<path class="st5" d="M1883.93,1402.39c0,0-22.45-52.02-90.53-80.72c-68.08-28.7-96.8-22.3-96.8-22.3s0.41-28.97,105.83-1.64
					c-45.16-124.27-277.89-309.1-277.89-309.1s162.2,85.95,237.42,186.35C1837.17,1275.36,1883.93,1402.39,1883.93,1402.39z"/>
			</g>
			<path class="st3" d="M1398.9,1484.07c0,0,71.58-50.66,174.94-101.24c82.65-40.44,106.79-48.04,106.79-48.04
				s106.95,11.27,147.35,40.41c42.26,30.48,108.42,72.82,92.58,108.17c-16.73,37.33-74.67,105.53-197.83,158.48
				c-123.16,52.95-176.68,54.11-176.68,54.11s-91.29-10.75-128.48-79.03C1380.39,1548.66,1398.9,1484.07,1398.9,1484.07z"/>
			<g>
				<path class="st3" d="M1545.36,1570.71c0,0-87.16-120.04-102.73-111.95c-114.31,59.42-104.19,125.26-88.6,150.63
					c13.49,21.97,100.73,213.2,166.46,210.15c9.05-0.42,69.01,2.4,101.86-22.6c20.34-15.48,36.42-42.34,36.15-74.85
					c-0.08-9.5-21.74-36.92-29.61-42.41c-7.87-5.49-51.86,27.62-51.86,27.62s60.69-22.81,44.06-45.15
					C1604.66,1640.08,1545.36,1570.71,1545.36,1570.71z"/>
				<path class="st4" d="M1471.77,1727.89c2.48-4.62,5.27-10.21,5.42-15.25c0.25-8.43-5.03-16.92-9.59-23.66
					c-9.96-14.69-22.28-27.52-33.95-40.83c-11.34-12.94-19.79-26.81-28.39-41.69c-15.77-27.31-31.38-55.45-41.71-85.39
					c-27.53,37.99-19.7,71.77-9.53,88.33c11.22,18.26,73.37,153.42,131.78,196.81C1481.78,1797.36,1447.4,1773.31,1471.77,1727.89z"
					/>
				<g>
					<path class="st6" d="M1484.7,1756.11c1.18,5.41,4.21,10.04,7.68,13.96c11.37,12.83,29.31,37.64,45.31,34.73
						c5.92-1.08,74.3-5.55,93.52-46.65c2.72-5.81,9.23-36.75,6.18-42.49c-2.18-4.1-9.99-20.68-32.63-11.35
						c-8.55,3.52-14.94,3.71-16.84,11.55c-1.92,7.91,10.22,17.98-9.61,23.33c-3.77,1.02-1.86-10.12-5.54-11.59
						c-3.68-1.47-9.79-3-8.35-7.06c0.65-1.82,4.73-7.14,6.04-8.38c8.34-7.92,5.45-5.49,13.62-13.25
						c4.63-4.4-47.06,23.07-72.64,34.61C1502.79,1737.42,1482.42,1745.64,1484.7,1756.11z"/>
				</g>
			</g>
			<path class="st7" d="M1523.94,1423.62c6.86-4.29,156.69-88.83,156.69-88.83s109.53,11.94,158.32,51.2
				c48.78,39.26,69.84,63.54,69.84,63.54s-120.8-81.61-235.97-72.02C1626.92,1381.35,1523.94,1423.62,1523.94,1423.62z"/>
			<path class="st4" d="M1781.82,1509.85c-20.22,25.6-35.22,61.04-58.15,83.96c4.29-10-0.11-37.82,4.18-47.82
				c-17.57,19.12-30.81,55.46-48.38,74.58c3.41-12.05-1.39-38.57,5.27-48.86c-17.8,25.07-19.41,42.35-41.75,63.01
				c3.93-13.3-10.03-19.37-1.51-29.84c-4.29,4.8-12.86,27.39-30.74,45.14c-23.6,23.43-58.29,42.93-70.15,46.46
				c98.57-9.14,216.2-61.67,292-118.52c50.57-37.93,80.19-68.6,78.27-119.06c-15.23,15.59-15.75,33.84-35.19,43.31
				c13.46-12.65,6.57-39.9,16.06-56.09c-17.81,21.46-50.39,90.96-73.51,106c16.42-16.66,18.43-72.58,26.45-95.26
				c-8.78,17.04-34.78,100.59-77.94,114.43C1769.09,1553.9,1779.32,1527.9,1781.82,1509.85z"/>
		</g>
		<g>
			<g>
				<path class="st3" d="M796.53,1049.45c0,0-163.66,74.61-248.94,175.46c-85.29,100.85-162.49,258.21-162.55,272.83
					c-0.06,14.62,57.84,83.73,170.8,55.52c112.96-28.21,293.49-203.46,303.95-219.93c10.46-16.46,85.37-82.1,59.39-179.19
					C893.2,1057.05,796.53,1049.45,796.53,1049.45z"/>
				<path class="st4" d="M450.72,1413.75c30.76-28.83,111.59-72.75,199.06-49c2.52,0.68,17.6-108.83,43.39-156.68
					c46.85-86.94,105.59-153.75,105.59-153.75s94.44,2.72,120.42,99.81c25.98,97.09-48.94,162.73-59.39,179.19
					c-10.46,16.46-190.99,191.71-303.95,219.93c-84.73,21.16-136.57-18.45-157.16-45.74
					C401.36,1468.18,411.77,1453.76,450.72,1413.75z"/>
				<path class="st5" d="M424.26,1443.74c0,0,23.21-48.16,88.53-72.54c65.31-24.38,92.14-17.22,92.14-17.22s0.75-27.33-99.71-5.71
					c47.46-115.38,274.15-280.5,274.15-280.5s-156.3,74.66-231.16,166.35C473.33,1325.82,424.26,1443.74,424.26,1443.74z"/>
			</g>
			<path class="st3" d="M878.33,1539.82c0,0-65.5-50.58-160.96-102.32c-76.33-41.37-98.79-49.49-98.79-49.49
				s-101.28,6.43-140.51,32.31c-41.04,27.07-105.08,64.4-91.54,98.34c14.3,35.85,66.25,102.43,180.29,157.19
				c114.04,54.77,164.45,57.96,164.45,57.96s86.49-6.55,124.23-69.46S878.33,1539.82,878.33,1539.82z"/>
			<g>
				<path class="st3" d="M736.84,1615.75c0,0,86.89-109.75,101.25-101.51c105.44,60.51,93.31,122.19,77.62,145.5
					c-13.59,20.18-103.35,197.05-165.2,191.58c-8.52-0.75-65.15-0.45-95.14-25.31c-18.57-15.39-32.67-41.35-31.14-71.99
					c0.45-8.95,21.94-33.96,29.58-38.82c7.63-4.87,47.81,28.08,47.81,28.08s-56.32-23.89-39.76-44.3
					C678.2,1678.82,736.84,1615.75,736.84,1615.75z"/>
				<path class="st4" d="M800.05,1766.83c-2.16-4.45-4.57-9.83-4.51-14.59c0.09-7.96,5.41-15.76,9.97-21.93
					c9.97-13.46,22.09-25.07,33.61-37.16c11.2-11.76,19.71-24.5,28.4-38.19c15.94-25.13,31.76-51.04,42.68-78.86
					c24.46,36.9,15.75,68.44,5.51,83.65c-11.29,16.77-75.2,141.76-131.97,180.37C787.88,1831.93,821.24,1810.61,800.05,1766.83z"/>
				<g>
					<path class="st6" d="M786.74,1792.93c-1.32,5.05-4.36,9.3-7.79,12.86c-11.22,11.65-29.12,34.33-44.08,30.96
						c-5.54-1.25-69.83-8.16-86.34-47.66c-2.33-5.59-7.25-35.01-4.16-40.3c2.21-3.78,10.23-19.1,31.21-9.42
						c7.92,3.66,13.94,4.09,15.43,11.56c1.5,7.53-10.34,16.55,8.15,22.37c3.52,1.11,2.15-9.47,5.67-10.71
						c3.53-1.24,9.35-2.44,8.15-6.33c-0.54-1.74-4.17-6.91-5.36-8.14c-7.55-7.79-4.92-5.39-12.32-13.03
						c-4.19-4.33,43.46,23.6,67.13,35.48C770.43,1774.6,789.3,1783.14,786.74,1792.93z"/>
				</g>
			</g>
			<path class="st7" d="M762.82,1477.92c-6.3-4.32-144.24-89.91-144.24-89.91s-103.74,6.95-151.27,42.05
				c-47.54,35.09-68.35,57.16-68.35,57.16s117.1-72.2,225.3-58.62C667.39,1434.01,762.82,1477.92,762.82,1477.92z"/>
			<path class="st4" d="M526.83,1550.39c19.68,26.01,33.95,61.75,56.41,85.15c-4.09-10.09,0.89-37.81-3.19-47.89
				c17.17,19.48,29.66,56.08,46.83,75.57c-3.16-12.12,2.19-38.53-4.26-48.96c17.28,25.43,18.53,42.74,40.44,63.86
				c-3.66-13.37,10.42-19.16,2.13-29.8c4.19,4.88,12.29,27.65,29.8,45.77c23.11,23.91,57.4,44.12,69.18,47.89
				c-98.36-11.18-214.88-66.12-289.49-124.53c-49.77-38.96-78.76-70.24-75.8-120.65c14.9,15.9,15.04,34.16,34.29,44.02
				c-13.2-12.92-5.75-40.03-14.9-56.41c17.37,21.82,48.5,91.98,71.31,107.5c-16.07-17-16.93-72.95-24.48-95.79
				c8.42,17.22,32.7,101.28,75.57,116.01C538.66,1594.69,528.96,1568.48,526.83,1550.39z"/>
		</g>
		<g>
			<g>
				<path class="st8" d="M1287.47,1914.39c0,0,9.93-27.67,19.87-21.29c9.93,6.39,12.41,11.08,12.06,15.61
					c-0.71,9.22-18.45,22-18.45,22L1287.47,1914.39z"/>
				<path class="st3" d="M1149.46,1884.59c-95.81,0-175.97,56.94-175.97,126.3c0,45.67,26.96,82.66,70.95,99.69
					c7.45,3.19,18.8-7.07,18.45-12.06c0.28-9.28-18.34-22.41-19.87-39.38c-3.72-41.51,38.69-63.74,95.79-65.46
					c57.1-1.72,115.48-6.92,108.03,52.68c-2.22,17.75-16.5,34.59-31.93,43.1c-5.32,4.26,10.64,28.2,31.4,20.75
					c52.06-23.36,84.8-59.04,86.21-104.3C1335.72,1903.21,1245.27,1884.59,1149.46,1884.59z"/>
				<path class="st4" d="M1242.77,2070.49c9.93-11.35,18.85-36.71,12.77-57.47c-9.58-32.74-49.05-41.01-78.05-41.15
					c-40.93-0.2-108.56-1.42-128.43,56.76c19.16-26.25,60.71-34.07,89.76-34.94c57.1-1.72,115.48-6.92,108.03,52.68
					c-2.22,17.75-16.5,34.59-31.93,43.1c-5.32,4.26,10.64,28.2,31.4,20.75c3.27-1.47,6.46-2.98,9.57-4.54
					C1255.45,2091.82,1249.86,2080.42,1242.77,2070.49z"/>
				<path class="st4" d="M999.39,2035.01c-5.01-28.96-2.29-70.28,22-90.11c11.08-9.05,33.71-17.17,47.18-14.8
					c20.36,3.58,39.73,11.69,60.77,7.29c29.08-6.08,50.13-27.74,68.02-50.87c-15.52-1.39-31.63-1.93-47.9-1.93
					c-95.81,0-175.97,56.94-175.97,126.3c0,45.67,26.96,82.66,70.95,99.69c7.45,3.19,18.8-7.07,18.45-12.06
					c0.11-3.67-2.74-7.95-6.32-12.82C1028.85,2078.03,1004.36,2063.76,999.39,2035.01z"/>
				<path class="st9" d="M1213.67,1930c0,0,57.98-0.92,86.56,32.64c32.64,38.32,12.77,92.24,12.77,92.24s36.2-62.17-4.26-114.95
					c-32.64-42.57-65.28-31.22-65.28-31.22L1213.67,1930z"/>
			</g>
			<g>
				<path class="st6" d="M1254.31,2106.5c0,0-14.9-34.06-35.65-38.32c-20.75-4.26-31.4,8.51-30.87,21.29
					c0.53,12.77,1.4,25.01,1.4,25.01s7.45,17.03,40.64,10.64C1248.39,2121.55,1254.31,2106.5,1254.31,2106.5z"/>
				<path class="st4" d="M1197.09,2113.42c0,0-4.24-24.05-1.6-33.26c1.6-5.58,8.54-10.09,11.43-12.52
					c-12.98,1.71-19.55,11.75-19.13,21.83c0.53,12.77,1.4,25.01,1.4,25.01s7.45,17.03,40.64,10.64
					c18.56-3.57,24.48-18.63,24.48-18.63s-0.11-0.26-0.32-0.7c-7.04,7.24-16.27,10.15-25.51,12.41
					C1205.6,2123.79,1197.09,2113.42,1197.09,2113.42z"/>
				<path class="st10" d="M1219.35,2079.36c0.17-0.55,10.29-0.71,21.29,9.22c-0.71-9.58-22.06-18.68-22.35-18.8
					c-2.48-1.06-10.78,5.45-12.42,17.74c-1.17,8.78-0.55,18.25,0.49,27.04c0.11,0.95,0.33,2.04,1.17,2.49
					c0.57,0.31,9.86,1,12.53,0.62C1215.45,2099.22,1216.93,2087.42,1219.35,2079.36z M1210.66,2069.25
					c-2.15-1.35-12.44,0.53-14.57,12.77c-1.46,8.42-1.86,18-0.83,26.48c0.2,1.63,0.43,3.3,1.26,4.72c0.82,1.42,2.39,2.53,4.02,2.33
					c0.29-0.04,0.57-0.11,0.82-0.27C1202.19,2114.73,1195.49,2080.16,1210.66,2069.25z"/>
			</g>
			<g>
				<path class="st6" d="M1032.21,2103.66c0,0,14.9-34.06,35.65-38.32c20.75-4.26,31.4,8.51,30.87,21.29
					c-0.53,12.77-1.6,26.08-1.6,26.08s-5.85,13.84-40.44,9.58C1037.93,2119.98,1032.21,2103.66,1032.21,2103.66z"/>
				<path class="st4" d="M1061.65,2116.21c-7.44-2.35-16.23-7.32-6.65-34.19c1.01-2.83,6.65-13.04,12.58-16.27
					c-20.47,4.74-35.11,38.18-35.11,38.18s5.72,16.32,24.48,18.63c27.86,3.43,37.07-4.87,39.6-8.24
					C1086.44,2120.9,1071.77,2119.4,1061.65,2116.21z"/>
				<path class="st10" d="M1079.96,2078.68c-1.33-1.5-3.88-2.52-5.22-1.03c-0.6,0.67-0.72,1.62-0.81,2.51
					c-1.22,11.92-1.43,23.94-0.65,35.89c2.67,0.38,5.34,0.75,8.01,1.13c0.65,0.09,1.35,0.17,1.92-0.14
					c0.84-0.46,1.06-1.54,1.17-2.49c1.05-8.79,0.81-17.74-0.71-26.46C1083.08,2084.73,1082.23,2081.24,1079.96,2078.68z
					 M1094.65,2082.02c-2.13-12.24-14.87-14.12-17.03-12.77c12.77,10.64,11.68,30.84,10.96,43.3c-0.06,0.99-0.04,2.19,0.8,2.72
					c0.24,0.16,0.53,0.23,0.82,0.27c1.63,0.2,3.19-0.91,4.02-2.33c0.83-1.42,1.06-3.09,1.26-4.72
					C1096.51,2100.01,1096.11,2090.44,1094.65,2082.02z"/>
			</g>
		</g>
		<g>
			<g>
				<path class="st3" d="M1180.33,869.23c0,0-404.44,23.42-461.91,340.58c-57.47,317.17,55.34,440.63,78.76,468.3
					c23.41,27.67,261.82,272.47,355.48,272.47c93.66,0,414.41-342.5,447.01-576.86c34.06-244.79-88.81-393.21-106.43-410.83
					C1395.32,864.97,1180.33,869.23,1180.33,869.23z"/>
				<path class="st6" d="M1195.23,1305.6c-27.36,24.83-80.53,30.1-113.77,13.98c-75.53-36.62-246.04-119.43-273.64,32.85
					c-39.31,216.94,77.56,345.46,93.58,364.39c16.02,18.93,178.7,216.36,242.74,214.6c51.8-1.42,292.74-237.04,315.04-397.35
					c23.3-167.44-9.93-240.54-52.51-263.95C1336.16,1231.34,1251.85,1254.23,1195.23,1305.6z"/>
				<g>
					<path class="st4" d="M992.3,1087.06c-6.39,0-186.36,30.44-236.99,194.42c-47.54,153.97,33.35,224.22,33.35,224.22
						s8.51,93.66,44.7,150.42c87.81,137.74,262.25,268.37,284.53,276.72c34.06,12.77,58.18-5.68,58.18-5.68s-28.69,53.14-85.85,7.1
						c-51.09-41.15-68.9-51.42-105.01-82.31c-177.3-151.65-247.01-208.1-275.3-392.02c-34.06-221.38,44.7-403.73,134.1-457.66
						C872.47,985.09,992.3,1087.06,992.3,1087.06z"/>
					<path class="st11" d="M1037.71,1275.8c11.21-26.11,17.49-33.8,40.26-50.8c-51.36,6.64-76.51,6.84-120.09,34.83
						c9-17.39,1.78-21.1,18.09-31.93c-33.29,7.19-51.79,12.05-82.41,26.96c3.47-15.63,11.94-30.12,23.87-40.8
						c-19.84,5.5-57.08,25.84-75.59,34.86l17.05-29.54l-28.74,10.64l24.48-38.32c0,0-34.77,23.37-42.22,27.99
						c-7.45,4.62-47.18,56.09-51.44,128.46c-2.1,35.62,0.53,85.91,21.29,114.95c20.8,29.11,90.11,103.59,322.13,99.34
						c133.74-2.45,176.27-3.97,251.3-25.62c13.35-3.85,27.46,3.49,31.8,16.69c9.96,30.27,14.34,59.02-1.48,94.98
						c-66.79,151.85-198.37,280.95-187.96,272.98c322.49-246.92,386.26-562.02,385.99-581.83c-0.41-29.66,9.22-208.61-73.79-302.27
						c-14.9,57.47-61.48,98.79-106.43,127.72c-75.6,48.64-153.31,73.99-186.26,85.15c13.19-13.88,20.85-36.1,34.04-49.98
						c-50.89,19.52-83.39,59.77-129.83,88.3c12.77-31.93,22.35-62.6,49.62-75.19C1117.49,1226.9,1078.91,1238.49,1037.71,1275.8z"/>
					<path class="st9" d="M1510.26,1037.39c-14.9,57.47-61.48,98.79-106.43,127.72c-15.13,9.73,6.34-1.85-8.51,5.68
						c161.78,146.88,92.24,397.35,66.7,429.98c-76.63,151.13-262.81,312.92-252.6,305.1c322.49-246.92,370.9-500,380.32-560.54
						C1599.67,1281.47,1593.28,1131.05,1510.26,1037.39z"/>
				</g>
			</g>
			<g>
				<path class="st3" d="M1498.91,943.73c0,196.72-214.47,250.05-397.35,256.86c-266.79,9.93-280.98-41.69-280.98-238.41
					s95.08-370.38,346.97-374.64C1350.53,584.45,1498.91,747.01,1498.91,943.73z"/>
				<path class="st4" d="M971.36,1149.14c-2.21-1.97,19.14,2.11,27.58,3.46c-3.85-4.25-29.95-30.26-36.2-39.28
					c-9.35-13.5-18.29-28.28-23.24-44.05c-0.84-2.69,15.92,16.22,23.26,23.85c-22.04-53.82-29.48-116.26-27.04-173.53
					c5.6-131.54,74.88-281.98,198.56-330.43C907.25,607.6,820.59,774.37,820.59,962.18c0,190.57,13.32,244.97,256.71,239.16
					c-6.61-2.2-39-11.59-61.59-22.74C989.63,1165.71,973.33,1150.9,971.36,1149.14z"/>
				<path class="st9" d="M1456.34,801.82c-55.34-95.08-140.49-136.23-166.03-105.01c-25.54,31.22,113.53,173.13,113.53,173.13
					s25.42,36.25,20.22,98.93c10.07-6.61,18.86-14.84,25.5-25.34c1.48-2.33-15.7,42.1-30.89,58.83c-0.63,2.66-1.32,5.35-2.07,8.07
					c-1.79,6.53-4.13,13.23-6.91,20.02c8.81-4.78,17.05-11.27,24.81-16.51c2.31-1.56-25.8,43.22-46.46,57.86
					c-5.64,8.95-11.77,17.73-18.18,26.12c11.3-4.3,21.85-10.34,32.7-15.87c2.35-1.2-19.68,27.42-33.48,34.43
					c-8.13,4.13-16.44,7.79-24.82,11.31c-12.13,12.56-24.35,23.04-35.52,30.22c-39.73,25.54,107.85-41.15,143.33-100.76
					C1487.56,997.66,1511.68,896.9,1456.34,801.82z"/>
			</g>
			<path class="st12" d="M817.51,1179.62c-12.48-13.6-10.34-34.66-7.42-52.89c-16.3,2.36-31.01-12.05-33.18-28.38
				c-1.36-10.18,8.51-61.31,23.8-53.87c17.81,8.66-5.64-92.68,7.1-107.85c107.82-128.39,270.65-129.91,434.76-164.26
				c28.28-5.92,173.93-30.12,189.64-30.15c19.23,45.27,28.13,82.11-4.97,118.49c-5.03,5.53-29.06,37.79-30.98,45.02
				c-2.78,10.44,5.26,63.54-5.21,74.19c-10.46,10.64-16.45,24.21-27.67,34.06c-44.46,39.02-75.92,88.69-92.95,149.71
				c-37.3-5.26-87.44,1.73-123.46,12.77c-2.18,23.31-18.95,38.85-41.1,46.44c-22.15,7.59-46.23,6.34-69.59,4.65
				c-70.17-5.07-124.66-12.97-191.87-33.76C834.62,1190.75,824.45,1187.18,817.51,1179.62z"/>
		</g>
		<g>
			<g>
				<path class="st3" d="M768.43,833.04c0,0-25.19-91.18-18.09-105.37s77.34-186.96,95.79-206.83
					c18.45-19.87,168.87-79.47,187.32-80.89c18.45-1.42,174.55-1.42,197.25,5.68c22.71,7.1,144.75,144.75,177.39,212.86
					c32.64,68.12,39.73,130.56,39.73,141.91s-134.81,211.44-154.68,211.44c-19.87,0-361.87,43.99-417.21,9.93
					C820.59,987.72,768.43,833.04,768.43,833.04z"/>
				<path class="st4" d="M749.28,739.38c0,3.19,31.93,64.92,31.93,64.92l24.48-8.51l52.15-55.34l-46.83,72.37l-45.77,4.26
					L749.28,739.38z"/>
				<path class="st13" d="M1142.72,444.21l-36.9,18.45l70.95,7.1l-82.31,5.68c0,0-19.87,14.19-25.54,26.96
					c-5.68,12.77,14.19-8.51,41.15,2.84c26.96,11.35,48.25,26.96,48.25,26.96s-53.93-17.03-65.28-14.19
					c-11.35,2.84-38.32,9.93-38.32,9.93s-34.25,31.78-39.38,92.24c-1.45,17.13,4.1,31.67,21.29,31.93l46.48,2.13l23.77-38.32
					c0,0,68.12-35.12,135.17,17.03c67.05,52.15,64.92,80.89,64.92,80.89s-78.76-1.06-125.59,8.51
					c-46.83,9.58-83.02-17.03-83.02-17.03s-79.11-39.38-124.53-30.86c-45.41,8.51-150.07,46.83-150.07,46.83l-51.09,4.26
					l39.38-83.02l120.27-27.67l12.77,37.25l27.67,2.13c14.22-0.34,17.91-13.77,19.41-27.91c2.08-19.63,5.29-45.24,8.62-54.4
					c5.68-15.61,25.54-45.41,25.54-45.41s-12.77-18.45-43.99-9.93c-31.22,8.51-49.67,15.61-49.67,15.61s34.06-31.22,62.44-31.22
					c28.38,0,45.41,9.93,45.41,9.93l24.12-35.48l-38.32-9.93l55.34-4.26l34.06-17.03H1142.72z"/>
				<polygon class="st14" points="808.52,489.62 836.91,542.13 992.3,454.85 883.03,399.51 				"/>
				<polygon class="st15" points="808.52,489.62 836.91,542.13 971.01,466.92 878.77,411.57 				"/>
				<path class="st14" d="M760.28,586.12c0,0,67.41-81.6,80.18-94.37c12.77-12.77,37.61-37.61,42.57-48.96
					c4.97-11.35,0-43.28,0-43.28s-97.92,51.8-111.4,63.86c-13.48,12.06-17.74,19.16-17.74,19.16s-11.35,78.76-8.51,87.27
					C748.21,578.31,760.28,586.12,760.28,586.12z"/>
				<path class="st13" d="M869.54,439.24c4.97-11.35,3.55-34.06,3.55-34.06s-87.98,46.12-101.46,58.18
					c-13.48,12.06-17.74,19.16-17.74,19.16s-11.35,78.76-8.51,87.27C748.21,578.31,864.58,450.6,869.54,439.24z"/>
				<polygon class="st3" points="1220.77,450.6 1290.31,414.41 1372.61,571.93 1347.07,565.54 				"/>
				<path class="st15" d="M1248.88,455.01l28.34-18.43c5.12-3.01,11.72-1.16,14.51,4.08l66.98,111.23
					c4.26,7.99-2.97,17.24-11.75,15.04l0,0c-1.79-0.45-17.63-31.9-38.92-52.48c-21.29-20.58-61.15-42.96-61.15-42.96
					C1241.96,466.69,1242.94,458.5,1248.88,455.01z"/>
				<path class="st12" d="M1282.5,437.12c0,0-14.57,34.58,14.9,73.08c29.47,38.5,22.28,131.75,22.28,131.75s71.73,20.2,77.79,17.96
					c6.06-2.24-4.29-106.42-4.29-106.42s-28.37-82.88-39.66-95.6C1342.23,445.16,1282.5,437.12,1282.5,437.12z"/>
				<path class="st3" d="M1284.63,423.63l74.5,206.48c0,0,75.21,19.16,80.89,17.03c5.68-2.13,12.06-119.2,12.06-119.2
					s-77.34-60.31-90.82-72.37c-13.48-12.06-60.31-42.57-67.41-42.57C1286.76,412.99,1284.63,423.63,1284.63,423.63z"/>
				<path class="st16" d="M1367.65,613.79c0,0,68.12,22,73.79,19.87c5.68-2.13,10.64-105.72,10.64-105.72s-77.34-60.31-90.82-72.37
					c-13.48-12.06-60.31-42.57-67.41-42.57C1286.76,412.99,1367.65,613.79,1367.65,613.79z"/>
				<path class="st5" d="M1176.07,762.8c4.26-2.84,73.46-48.2,120.62-44.7c20.13,1.49,40.01,7.33,44.35,0
					c13.84-23.41-24.48-46.12-24.48-46.12s53.57,18.8,56.41,47.18c2.84,28.38-1.06,38.67-26.61,41.51
					c-25.54,2.84-67.25-16.34-90.47-12.77C1228.22,752.15,1176.07,762.8,1176.07,762.8z"/>
				<path class="st5" d="M768.08,733.71c0,0,8.51-5.68,38.32,2.84s29.8,8.51,29.8,8.51l-32.48,24.05L768.08,733.71z"/>
				<path class="st5" d="M1389.64,651.4c0,0,31.93,115.66,24.83,128.43c-7.1,12.77-41.15,26.96-41.15,26.96l7.1,11.89
					c6.11,9.69,7.73,13.62,10.11,24.48c5.08-3.57,45.5-32.67,47.36-51.27C1442.15,749.31,1389.64,651.4,1389.64,651.4z"/>
				<path class="st4" d="M1388.56,847.15c2.56,12.7,3.5,25.92,4.64,39.09l47.53-81.58L1388.56,847.15z"/>
				<g>
					<polygon class="st17" points="1307.33,454.14 1367.65,613.79 1441.44,633.66 1377.58,595.34 					"/>
					<path class="st17" d="M756.02,569.8c0,0,112.82-121.33,116.37-129.85c3.55-8.51,3.55-31.22,3.55-31.22s14.9,18.45,2.84,36.19
						C828.6,518.69,756.02,569.8,756.02,569.8z"/>
					<path class="st18" d="M983.01,494.21c-30.47,5.87-56.45,26.93-73.95,52.55c17.41-5.22,34.94-10.02,52.57-14.41
						c12.25-3.05,24.84-5.91,37.39-4.57c2.07,8.34,1.43,17.34-1.82,25.29c-0.75,1.84-1.67,3.67-3.16,4.98
						c-1.78,1.56-4.15,2.21-6.46,2.73c-38.15,8.67-69.36,2.9-108.46,1.92c-21.29-0.53,8.19-39.88,15.96-45.23
						c49.49-34.06,90.94-56.48,149-69.71c9.41-2.14,27.46-3.55,36.9-1.54c2.54,0.54,5.61,2.24,5.11,4.8
						c-0.42,2.18-3.09,2.95-5.29,3.28c-26.12,3.95-52.24,7.9-78.36,11.85c13.35,2.08,26.86,6.49,40.21,8.57
						c5.18,0.81,7.55,0.71,9.22,5.68c1.43,4.26-10.59,12.57-15.08,12.49C1018.84,492.59,1000.66,490.82,983.01,494.21z"/>
					<path class="st18" d="M1203.03,474.72c-26.51-3.1-55.14,1.33-81.83,1.74c-7.09,0.11-14.34,0.37-20.97,2.88
						c-6.63,2.51-12.65,7.7-14.33,14.59c42.63-2.9,99.42,36.23,98.5,40.02c-0.71,2.94-1.7,6.23-4.41,7.57
						c-1.28,0.63-36.73-5.26-52.62-10.17c-15.89-4.91-33.22-8.52-48.94-3.1c-12.58,4.34-23,14.54-27.61,27.02
						c5.12,2.87,11.37,2.47,17.22,1.95c59.6-5.35,103.49-16.19,162.31-5.17c4.14-22.06,12.22-46.76,5.32-68.12
						c-2.76-8.53-4.36-14.17-11.22-19.95c-3.96-3.34-8.88-5.31-13.77-7.03c-12.85-4.54-26.15-7.8-39.64-9.72
						c-7.91-1.13-16.03-1.79-23.85-0.15c-7.82,1.64-15.4,5.85-19.58,12.66C1153.54,458.17,1204.26,470.5,1203.03,474.72z"/>
				</g>
			</g>
			<g>
				<g>
					<g>
						<g>
							<path class="st19" d="M1110.85,766.87l35.42,12.95c0,0,28.74-30.37,79.47-47.54c46.12-15.61,73.08-16.32,73.08-16.32
								l-47.16-3.5c0,0-12.94-76.35-35.04-84.62c-22.1-8.28-101.6,6.94-116.79,28.58C1084.65,678.07,1110.85,766.87,1110.85,766.87z
								"/>
							<path class="st20" d="M1116.69,754.54l22,0.35c0,0,37.32-18.81,64.52-26.26c27.2-7.45,40.09-9.77,40.09-9.77
								s-16.83-79.29-31.24-82.08c-16.16-3.14-77.62,5.2-98.25,20.46C1093.18,672.49,1116.69,754.54,1116.69,754.54z"/>
						</g>
						<g>
							<defs>
								<path id="SVGID_1_" d="M1116.69,754.54l22,0.35c0,0,37.32-18.81,64.52-26.26c27.2-7.45,40.09-9.77,40.09-9.77
									s-16.83-79.29-31.24-82.08c-16.16-3.14-77.62,5.2-98.25,20.46C1093.18,672.49,1116.69,754.54,1116.69,754.54z"/>
							</defs>
							<clipPath id="SVGID_2_">
								<use xlink:href="#SVGID_1_"  style="overflow:visible;"/>
							</clipPath>
							<g class="st21">
								
									<ellipse transform="matrix(0.9597 -0.2811 0.2811 0.9597 -146.3525 360.1236)" class="st0" cx="1181.95" cy="690.14" rx="56.42" ry="58.24"/>
								
									<ellipse transform="matrix(0.9977 -0.0682 0.0682 0.9977 -44.7663 85.4494)" class="st22" cx="1228.67" cy="698.14" rx="24.16" ry="24.94"/>
								<path class="st22" d="M1215.21,704.35c-0.02,9.79-7.72,17.67-17.2,17.61c-9.48-0.06-17.16-8.04-17.14-17.83
									c0.02-9.79,7.72-17.67,17.2-17.61C1207.55,686.58,1215.22,694.56,1215.21,704.35z"/>
							</g>
						</g>
					</g>
					<g>
						<g>
							<path class="st19" d="M918.69,750.19l-42.76,14.73c0,0-11.35-20.58-55.34-31.22c-38.15-9.23-42.57-7.81-42.57-7.81
								l29.76-6.89c0,0,5.97-62.93,21.6-71.93c15.81-9.1,76.79-3.88,90.37,12.45C933.62,676.23,918.69,750.19,918.69,750.19z"/>
							<path class="st20" d="M913.91,743.38l-17.69,2.09c0,0-30.52-13.14-51.74-17.16c-20.73-3.93-30.33-4.76-30.33-4.76
								s8.6-66.04,18.98-69.83c11.75-4.29,58.88-4.38,76.09,5.99C926.84,670.32,913.91,743.38,913.91,743.38z"/>
						</g>
						<g>
							<defs>
								<path id="SVGID_3_" d="M913.91,743.38l-17.69,2.09c0,0-30.52-13.14-51.74-17.16c-20.73-3.93-30.33-4.76-30.33-4.76
									s8.6-66.04,18.98-69.83c11.75-4.29,58.88-4.38,76.09,5.99C926.84,670.32,913.91,743.38,913.91,743.38z"/>
							</defs>
							<clipPath id="SVGID_4_">
								<use xlink:href="#SVGID_3_"  style="overflow:visible;"/>
							</clipPath>
							<g class="st23">
								<path class="st0" d="M935.31,703.6c-3.17,27.78-26.08,48.25-51.18,45.74c-25.1-2.52-42.88-27.07-39.72-54.85
									c3.17-27.78,26.08-48.25,51.18-45.74C920.69,651.27,938.47,675.83,935.31,703.6z"/>
							</g>
						</g>
					</g>
				</g>
				<g>
					<path class="st14" d="M1081.7,576.19c0,0-12.77,63.86-7.8,70.24c4.97,6.39,14.19,14.9,14.19,14.9s75.92-8.51,111.4-1.42
						c35.48,7.1,70.95,25.54,70.95,25.54s33.35-4.97,34.77-19.16c1.42-14.19,2.84-37.61,2.84-37.61s-18.93-38.51-71.66-56.76
						C1162.59,546.39,1081.7,576.19,1081.7,576.19z"/>
					<path class="st12" d="M1091.99,573.35c0,0-7.45,7.45-8.51,35.12c-1.06,27.67,8.51,31.93,8.51,31.93s79.82-10.64,110.69-2.13
						c30.86,8.51,70.79,35.12,80.89,35.12c8.51,0,22,4.97,21.64-7.1c-0.35-12.06-4.61,24.12-22.71,29.45
						c-18.09,5.32-39.38-27.67-104.3-28.74c-64.92-1.06-93.66,11.71-93.66,11.71l-30.87-31.93c0,0,14.55-63.5,21.29-67.05
						C1081.7,576.19,1091.99,573.35,1091.99,573.35z"/>
					<path class="st22" d="M1091.99,573.35c0,0-10.11,25.01-5.85,44.7c3.4,15.74,5.85,22.35,5.85,22.35s2.13-48.43,15.96-55.34
						c13.84-6.92,72.91-14.37,105.9-3.72c32.99,10.64,91.53,56.94,91.53,56.94l2.66-9.58c0,0-35.12-51.09-97.39-62.26
						C1148.4,555.25,1091.99,573.35,1091.99,573.35z"/>
				</g>
				<g>
					<path class="st14" d="M763.11,621.24c0,0,9.93,35.83,13.48,45.06c3.55,9.22,11.35,17.74,11.35,17.74s39.02-18.45,62.44-19.87
						c23.42-1.42,91.53-1.42,91.53-1.42s5.68-11.35,7.8-16.32c2.13-4.97-11.35-63.15-11.35-63.15s-45.41-13.48-90.11-0.71
						C803.56,595.34,763.11,621.24,763.11,621.24z"/>
					<path class="st12" d="M763.11,621.24l13.48,45.06c0,0,9.22,22,10.64,23.41c1.42,1.42,7.8,4.26,10.64,2.13
						c2.84-2.13,27.67-19.87,50.38-18.45c22.71,1.42,92.24,1.42,92.24,1.42s19.16-10.64,20.58-16.32
						c1.42-5.68,3.55-13.48,3.55-13.48l-22.71-61.02l-6.39-0.71c0,0,4.26,40.44,1.42,52.51c-2.84,12.06-8.51,14.9-8.51,14.9
						s-65.28-4.26-87.98,0.71c-11.66,2.55-24.64,7.35-34.5,11.41c-9.18,3.78-19.73,0.09-24.55-8.59L763.11,621.24z"/>
					<path class="st24" d="M932.75,647.45c0.7-12.93-6.9-48.94-9.28-51.4c-3.68-3.8-51.02-2.33-73.79,1.06
						c-22.78,3.4-55.77,16.1-76.28,26.61c-1.18,0.61-1.55-0.48-2.88-0.42c-1.33,0.06-2.81-0.82-2.88-2.14
						c41.21-25.43,81.16-41.15,129.58-41.78c5.53-0.07,35.85,3.73,36.54,5.32C941.75,603.16,939.49,628.5,932.75,647.45z"/>
				</g>
			</g>
			<g>
				<g>
					<path class="st14" d="M821.65,795.79c0,0-63.86-41.51-87.27,20.22c-9.38,24.72-4.26,52.15-4.26,52.15l26.61,40.44
						c0,0,23.41,71.31,27.67,91.53c4.26,20.22,12.77,98.98,12.77,98.98s123.46,31.93,278.85,31.93
						c155.39,0,193.71-10.64,193.71-10.64s29.8-69.18,60.67-106.43c30.87-37.25,52.15-60.67,52.15-60.67s41.51-125.59-38.32-164.97
						c-79.82-39.38-153.26,36.19-153.26,36.19L821.65,795.79z"/>
					<g>
						<path class="st25" d="M757.44,867.81l8.51-5.68c0,0,97.92,137.3,116.37,146.52c18.45,9.22,154.68,15.61,178.81,14.9
							c24.12-0.71,115.66,7.1,151.13-6.39c35.48-13.48,73.08-20.22,89.4-67.76c16.32-47.54,12.77-68.83,12.77-68.83
							s8.51,1.42,15.61,6.39c7.1,4.97,14.19,11.35,14.19,11.35s-12.06-29.09-41.15-34.77c-29.09-5.68-40.44,1.42-40.44,1.42
							s24.12,2.13,31.93,4.97c7.81,2.84,4.97,6.39,4.97,6.39s7.81,50.38-16.32,83.73c-7.32,10.12-45.92,35.9-82.31,33.7
							c-83.48-5.04-200.86-56.59-227.05-63.5c-37.61-9.93-194.42-74.5-194.42-74.5l6.39-5.68c0,0-4.97-6.39-14.9,0.71
							C760.98,857.88,757.44,867.81,757.44,867.81z"/>
						<path class="st20" d="M957.63,995.78c1.21,2.25,2.05,4.69,2.5,7.2c0.96,0.18,1.98,0,2.82-0.49c-0.24-2.9-0.46-5.95,0.71-8.61
							c1.17-2.67,4.21-4.76,6.97-3.83c5.14,1.74,3.66,10.57,8.34,13.32c-0.41-2.44-0.82-4.95-0.25-7.36
							c0.57-2.41,2.39-4.69,4.84-5.02c2.17-0.29,4.31,1.03,5.61,2.8c1.3,1.77,1.92,3.93,2.52,6.04c0.57-2.33,1.17-4.73,2.55-6.69
							c1.38-1.97,3.75-3.43,6.12-3.05c2.33,0.38,4.1,2.46,4.81,4.71c0.72,2.25,0.59,4.67,0.45,7.03c-0.06,1.08-0.16,2.24-0.86,3.07
							c-1.2,1.4-3.48,1.07-5.11,0.2c-1.63-0.87-3.1-2.17-4.93-2.43c-2.41-0.33-4.61,1.23-6.72,2.45c-2.11,1.22-4.94,2.09-6.83,0.56
							c-0.95-0.77-1.79-2.14-2.98-1.84c-0.52,0.13-0.89,0.58-1.26,0.97c-4.31,4.64-12.8,4.26-16.68-0.74
							c-4.72,2.59-10.4,5.22-15.25,2.88c-1.33-4.1-1.06-8.7,0.73-12.62c0.59-1.29,1.39-2.56,2.62-3.27
							C951.72,989.1,955.79,992.36,957.63,995.78z"/>
						<path class="st26" d="M1284.63,978.5c-36.19,48.96-202.94,32.77-218.04,30.18c-11.21-1.92-13.26-9.05-24.63-9.61
							c-10.68-0.53-44.67-1.39-55.34-0.71c-22.15,1.42-62.71,0.79-81.24,4.61c-10.72,2.21,2.52,7.34-10.29,8.16
							c2.03,6,9.33,10.19,15.64,10.72c6.31,0.53,12.55-1.27,18.71-2.71c43.76-10.2,89.55-2.7,133.49,6.71
							C1077.95,1029.07,1233.54,1079.25,1284.63,978.5z"/>
					</g>
					<path class="st17" d="M1246.31,845.81c0,0,30.81-30.17,70.95-11.35c45.41,21.29,59.6,97.92,59.6,97.92
						s25.54-116.37-43.99-143.33C1263.34,762.09,1246.31,845.81,1246.31,845.81z"/>
					<path class="st17" d="M743.6,842.98c0,0,1.42-15.61,18.45-24.12c17.03-8.51,9.93-28.38-8.51-14.19
						C735.09,818.85,743.6,842.98,743.6,842.98z"/>
				</g>
				<g>
					<path class="st6" d="M748.21,957.57c0,0,5.32-75.57,50.02-134.1c44.7-58.54,77.7-119.2,111.75-134.1
						c34.06-14.9,125.59-32.99,196.9,23.41c71.31,56.41,150.07,133.04,154.33,208.61c4.26,75.57-43.64,149-139.43,119.2
						c-95.79-29.8-147.94-91.53-147.94-91.53s-76.63,96.85-150.07,77.7C750.34,1007.59,748.21,957.57,748.21,957.57z"/>
					<path class="st27" d="M957.27,814.11c0,0-0.2,40.49,2.21,75.34c1.75,25.24,6.31,47.28,6.39,50.02
						c0.35,12.33-22.62,41.24-26.87,45.5c-4.26,4.26,35.21-25.63,35.21-25.63l46.12,30.87l-32.64-35.12
						c-5.8-7.84-8.41-20.3-8.71-30.05l-4.59-41.97l0.89-76.99L957.27,814.11z"/>
					<path class="st28" d="M915.51,730.04l-11.32,16.98c-3.52,5.28-3.17,12.24,0.88,17.12c8.41,10.14,22.57,26.96,30.46,34.85
						c6.57,6.57,15.32,11.8,21.74,15.13c5.05,2.62,11.15,2,15.58-1.56c8-6.43,54.84-49.01,60-52.79c5.85-4.29,7.6-12.25,4.07-18.59
						l-7.68-13.77c-2.64-4.73-7.71-7.58-13.13-7.36l-89.23,3.61C922.29,723.84,918.06,726.21,915.51,730.04z"/>
					<path class="st24" d="M810.65,906.83c0,0,19.87-35.48,42.57-61.02c22.71-25.54,52.51-49.67,52.51-49.67l38.32,24.12
						c0,0,14.19,99.34-5.68,126.3c-19.87,26.96-71.41,62.59-99.34,63.86C776.59,1013.27,810.65,906.83,810.65,906.83z"/>
					<path class="st24" d="M995.13,821.69l34.06-31.22c0,0,131.98,61.02,144.75,106.43c12.77,45.41-2.84,122.04-26.96,123.46
						c-24.12,1.42-116.37-15.61-140.49-86.56C982.36,862.84,995.13,821.69,995.13,821.69z"/>
					<path class="st4" d="M1258.86,910.76c-0.32,19.9-0.84,40.63-10.06,58.27c-10.56,20.2-31.22,33.38-52.7,41.02
						c-53.08,18.87-115.9,7.01-158.45-29.9c-42.55-36.91-63.16-97.43-51.97-152.64c2.02-9.96,5-19.76,9.45-28.89
						c9.28-19.06,24.51-34.45,39.47-49.47c-36.28,16.56-77.73,21.57-116.91,14.15c-6.34-1.2-13.78-3.84-15.11-10.15
						c-2.31-10.94,16.05-17.61,14.58-28.69c-7.16,2.87-16.08,0.45-20.8-5.65c-4.72-6.1-4.77-11.53-0.2-17.74
						c3.52-4.79-30.48,26.78-34.06,32.99c-29.65,51.46-88.56,103.61-109.18,218.99c-0.15-0.27-0.3-0.53-0.45-0.8
						c0.02,0.86,0.07,1.71,0.12,2.56c-0.04,0.21-0.08,0.42-0.12,0.63c0.05,0.09,0.11,0.2,0.17,0.29
						c2.55,34.37,32.74,61.02,66.36,70.3c34.75,9.6,73.25-1.35,101.4-23.87c14.4-11.52,28.33-26.71,46.76-27.55
						c12.22-0.56,23.65,5.52,34.29,11.55c31.8,18.01,63.23,37.29,97.79,49.15c34.56,11.86,73.26,15.77,107.36,2.63
						c6.65-2.57,13.13-5.79,18.62-10.34c7.48-6.2,12.82-14.59,17.25-23.23C1257.13,975.74,1262.92,942.66,1258.86,910.76z
						 M952.09,954.2c-4.72,8.42-12.33,14.78-19.91,20.76c-16.31,12.88-33.47,25.09-52.81,32.7c-19.34,7.61-43.13,14.6-61,4
						c-89.32-53.03-3.2-195.57,9.66-208.42c15.11-15.1,41.4-30.95,62.72-29.57c15.07,0.97,26.36,13.87,37.33,24.25
						c8.34,7.89,15.42,10.86,20.22,21.29c5.57,12.1,5.62,78.89,5.32,97.92C953.43,929.57,958.18,943.34,952.09,954.2z"/>
					<path class="st24" d="M909.68,714.59c33.45-19.27,73.57-21.97,112.1-24.22c-34.67-5.59-70.25-5.44-104.87,0.43
						c58.6-21.18,126.71-14.12,179.72,18.64c-51.89-13.28-106.83-14.52-159.26-3.57c46.77-1.45,94.96-2.69,138.74,13.83
						c-52.74-9.66-107.23-9.69-159.98-0.08c8.76-4.01,18.28-6.36,27.9-6.9C932.59,713.34,921.13,713.97,909.68,714.59z"/>
					<path class="st22" d="M925.77,727.43c-5.95,5.96-11.16,12.64-15.49,19.86c3.97,9.12,34.77,9.81,48.67,8.41
						c25.02-2.52,45.43-4.77,68.12-15.61c-15.37,1.75-76.79,4.77-90.17,1.26c-3.3-0.87-6.65-2.11-9.05-4.54
						C925.45,734.37,924.25,730.49,925.77,727.43z"/>
				</g>
				<g>
					<path class="st6" d="M878.06,1021.43c0,0-46.83,15.96-50.02,34.06c-3.19,18.09-11.71,74.5,2.13,86.21
						c13.84,11.71,95.79,38.32,166.03,39.38c70.25,1.06,177.74-28.74,187.32-35.12c9.58-6.39,11.71-67.05,8.51-81.95
						c-3.19-14.9-154.33-55.34-209.67-55.34C927.02,1008.65,878.06,1021.43,878.06,1021.43z"/>
					<path class="st24" d="M882.67,1028.88c0,0-41.15,18.45-32.64,28.38c8.51,9.93,26.99,22.2,123.46,26.96
						c114.95,5.68,163.2-28.38,163.2-28.38s-74.86-30.87-137.3-36.54C936.95,1013.62,882.67,1028.88,882.67,1028.88z"/>
					<path class="st4" d="M865.69,1026.73c-12.69,1.55-23.09,11.59-28.44,23.2c-5.35,11.61-6.48,24.67-7.11,37.44
						c-0.15,2.91-0.25,5.93,0.85,8.63c0.98,2.4,2.82,4.33,4.68,6.13c23.63,22.76,56.54,33.18,88.9,38.61
						c63.33,10.62,127.9,7.5,189.77-9.69c76.63-21.29,73.62-45.57,76.34-67.67c3.48,24.03,3.48,48.51-3.97,82.57
						c-29.76,22.43-74.79,25.05-111.75,29.8c-77.98,10.03-151.33,8.81-223.51-22.35c-10.63-4.59-28.73-15.46-28.73-15.46l-0.8-32.22
						c0,0-10.11-4.44-15.17-6.66c-1.67-0.73-3.45-1.55-4.41-3.11c-1.38-2.22-0.63-5.1,0.25-7.57
						C812.87,1059.74,836.81,1036.34,865.69,1026.73z"/>
				</g>
			</g>
		</g>
	</g>
</g>
</svg>
